<?xml version="1.0" encoding="utf-8"?>
<!-- Generator: Adobe Illustrator 27.0.0, SVG Export Plug-In . SVG Version: 6.00 Build 0)  -->
<svg version="1.1" id="Layer_1" xmlns="http://www.w3.org/2000/svg" xmlns:xlink="http://www.w3.org/1999/xlink" x="0px" y="0px"
	 viewBox="0 0 62 62" style="enable-background:new 0 0 62 62;" xml:space="preserve">
<style type="text/css">
	.st0{fill:#8CC63E;}
	.st1{fill:#1C85C7;}
	.st2{fill:#799A0F;}
	.st3{fill:#60A9D9;}
	.st4{fill:#ADD577;}
</style>
<g>
	<g>
		<path class="st0" d="M59,46.2c-1.7,2.1-3.7,3.8-6.5,4.4c-3.3,0.7-6.4,0.1-8.9-2.2c-3.7-3.4-7.4-6.8-11.1-10.2
			c-0.4-0.4-0.8-0.7-1.2-1.1l2.4-2.3l3.9-3.7l9.3-8.8c0.9,0.8,1.8,1.7,2.7,2.5c2.9,2.7,5.8,5.3,8.6,8.1C61.9,36.4,62.2,42.3,59,46.2
			z"/>
		<path class="st1" d="M30.7,37.1c-0.4,0.4-0.8,0.7-1.2,1.1c-3.7,3.4-7.3,6.9-11.1,10.2c-2.6,2.3-5.6,2.9-8.9,2.2
			c-2.7-0.6-4.7-2.3-6.5-4.4c-3.2-4-2.9-9.8,0.7-13.4c2.8-2.8,5.7-5.4,8.6-8.1c0.9-0.8,1.8-1.7,2.7-2.5l2.7,2.5l3.9,3.7L30.7,37.1z"
			/>
		<path class="st2" d="M28.9,28.6c-1.9-0.4-3.5-1.1-5-2.2c-1.1-0.8-2.1-1.8-3-3c-0.2-0.3-0.4-0.7-0.6-1c-2.1-3.6-2.5-7.3-1.2-11.3
			h0.2c4.4,0,8.5,2.2,11,5.8c0,0.1,0.1,0.1,0.1,0.2C28.4,20.4,27.7,24.5,28.9,28.6z"/>
		<path class="st0" d="M41.3,23.4c-1.9,2.4-4.1,4-6.7,4.9c-0.4,0.1-0.9,0.3-1.4,0.4c-0.2,0-0.4,0.1-0.6,0.1c-0.2,0-0.4,0.1-0.6,0.1
			c-0.3,0-0.6,0.1-0.9,0.1c-0.3,0-0.6,0-0.9-0.1c-0.2-0.5-0.3-0.9-0.4-1.4c-0.7-3.2-0.2-6.4,1.3-9.3c0.1-0.2,0.2-0.4,0.3-0.5
			c0.1-0.2,0.2-0.3,0.3-0.5c0-0.1,0.1-0.1,0.1-0.2c2.5-3.6,6.6-5.8,11-5.8H43C44.5,15.4,43.9,19.5,41.3,23.4z"/>
	</g>
	<path class="st3" d="M17.7,24.8l3.9,3.7L10,39.4c-0.5,0.5-1.2,0.7-1.8,0.7c-0.7,0-1.4-0.3-2-0.9c-1-1.1-1-2.8,0.1-3.8L17.7,24.8z"
		/>
	<path class="st4" d="M49.5,45.8c-0.5,0.6-1.2,0.9-2,0.9c-0.7,0-1.3-0.2-1.8-0.7l-12-11.1l3.9-3.7L49.4,42
		C50.5,43,50.5,44.7,49.5,45.8z"/>
</g>
</svg>
